<svg height="20" width="20" xmlns="http://www.w3.org/2000/svg"><mask id="a" fill="#fff"><path d="M0 0h28v29H0z" fill-rule="evenodd"/></mask><path d="M13.878 18.613C9.527 18.613 6 15.118 6 10.806 6 6.496 9.527 3 13.878 3c4.35 0 7.878 3.495 7.878 7.806 0 4.312-3.527 7.807-7.878 7.807zm0-.867c3.867 0 7.002-3.107 7.002-6.94 0-3.832-3.135-6.939-7.002-6.939s-7.003 3.107-7.003 6.94c0 3.832 3.135 6.939 7.003 6.939zM13.5 19h.432a.5.5 0 0 1 .5.5v6.097a.5.5 0 0 1-.5.5H13.5a.5.5 0 0 1-.5-.5V19.5a.5.5 0 0 1 .5-.5z" fill="#9b9da0" mask="url(#a)" transform="rotate(-45 7.55 16.17)"/></svg>