<svg height="48" viewBox="0 0 102 48" width="102" xmlns="http://www.w3.org/2000/svg" xmlns:xlink="http://www.w3.org/1999/xlink"><mask id="a" fill="#fff"><path d="m0 0h115v50h-115z" fill="#fff" fill-rule="evenodd"/></mask><g fill="#585a5c" fill-rule="evenodd" mask="url(#a)"><path d="m28.3944592 22.7584168c0 .1130157-.0280612.8052263-.0841844 2.0766526-.0561231 1.2714263-.0841843 2.4863265-.0841843 3.6447371v1.398562c-2.7500351-.1412696-8.1939005-.2119034-16.3317595-.2119034-.9821554 0-1.95026544.0141268-2.90435925.0423807h-2.35716116c-.53317007 0-.79975111-.1271407-.79975111-.381426 0-.1695235.08418349-.2684107.25255298-.2966646.08418475 0 .61734682-.0423803 1.59950222-.127142.72960115-.0565079 1.17156445-.2119021 1.32590315-.4661873.15433871-.2542853.2315069-.9182424.2315069-1.9918913v-23.8179334c0-.81936361-.11925994-1.30673638-.35778339-1.46213293-.23852345-.15539654-1.00319011-.23309365-2.29402291-.23309365-.44898533 0-.67347462-.12714072-.67347462-.38142598s.30867278-.38142598.9260276-.38142598l7.19775999.04238066c.2525542 0 1.8380099-.01412674 4.7564145-.04238066h5.8929029c.8418475 0 1.6135294-.05650699 2.315069-.16952266.0561231 1.21491846.1823984 2.89600134.3788294 5.04329907l.1683687 1.82236858c.0280616.14126958.0420922.32491729.0420922.55094863 0 .28253918-.1262753.42380665-.3788295.42380665-.3086774 0-.5331667-.35316867-.6734746-1.05951661-.5331701-2.54285259-1.4030661-4.15330173-2.6097142-4.83139575-.8979706-.50857052-3.2551082-.76285196-7.0714835-.76285196h-3.4515574v12.41753469h1.010212c3.1428972 0 5.0580715-.2401547 5.7455803-.7204713s1.1575332-1.8788645 1.4100875-4.19568578c.0561231-.59333227.2104595-.88999396.4630138-.88999396.3086774 0 .4630138.25428145.4630138.76285197 0 .50857051-.0280612 1.2572881-.0841844 2.24617517-.0561231.9888872-.0841843 1.7376047-.0841843 2.2461753 0 3.0231691.0561223 5.0998009.1683687 6.2299576.0280615.2825392.0420921.5226939.0420921.7204713 0 .367301-.1543364.5509487-.4630138.5509487-.196431 0-.3297216-.1200774-.3998755-.3602357-.070154-.2401583-.1894139-1.0241927-.3577834-2.3521269-.2244927-1.6669811-.9119911-2.6982336-2.062516-3.0937885-.5051085-.1695235-1.8239831-.2542839-3.9566634-.2542839h-1.8941474v14.2399032c6.1735482 0 9.7934381-.1271407 10.8597782-.381426 1.8520645-.4238087 2.9043581-2.2320323 3.1569123-5.424725.0561232-.706348.2385207-1.0595166.5471981-1.0595166.2806159 0 .4209217.2966617.4209217.8899939zm13.5788246-11.7532466c-.1570311.0004165.319303.0288138 1.4290164.0851929.2794927.0283993.5589813.0425987.838474.0425987 1.7328549-.0851979 2.4874739-.1277962 2.2638797-.1277962h.4611607c.1956449-.0283993.3353892-.0425988.419237-.0425988.3353912 0 .5030844.0851967.5030844.2555925 0 .1419965-.0768594.2484923-.2305804.3194906s-.5380177.1064969-1.1529017.1064969c-.8105289 0-1.3415571.1135955-1.5931005.3407899-.2515435.2271945-.5170576.5821805-.7965503 1.0649687l-.7965503 1.3631598c-.3633405.6247848-.8943687 1.4625517-1.5931005 2.513326l-1.3834821 2.0873386.7127029 1.2353636c.2235942.3975903.7965456 1.4483488 1.7188716 3.1523072.4471884.7951805 1.2157818 2.1441273 2.3058034 4.0468808.3633406.6247847.7127012 1.0294688 1.0480925 1.2140642.3353913.1845955.9013556.2768919 1.6979098.2768919.7965543 0 1.1948254.1135955 1.1948254.34079 0 .2271944-.2515397.3407899-.7546266.3407899h-.4611606c-.1676957-.0283993-.3773121-.0425987-.6288555-.0425987l-4.1504462-.0425988c-1.0341231 0-1.8725886.0141995-2.5154219.0425988-.4751376.0283993-.880396.0425987-1.2157873.0425987-.5030869 0-.7546265-.1135955-.7546265-.3407899 0-.1703959.0838465-.269792.2515421-.2981913.1676957-.0283993.768596-.0425987 1.8027191-.0425987.7825796 0 1.1738636-.127795 1.1738636-.3833887 0-.1987952-.1397443-.5395817-.419237-1.0223699-.6707826-1.2211702-1.7048901-3.0528979-3.1023537-5.4952382l-.2515422-.4259875c-2.8787751 4.174698-4.318141 6.4892067-4.318141 6.9435956 0 .2555937.7825679.3975881 2.3477271.4259874.2794928 0 .419237.0993961.419237.2981913 0 .2555937-.2375652.3833887-.7127029.3833887-.1676956 0-.475133-.0141995-.9223213-.0425988-.4471884-.0283993-1.0201399-.0425987-1.7188717-.0425987h-.3773133c-.3912898 0-.7546249.0141994-1.0900161.0425987l-.838474-.0425987c-.3633405.0283993-.5869314.0425987-.6707792.0425987-.307442 0-.4611607-.1135955-.4611607-.3407899 0-.2271945.3074374-.3549894.9223214-.3833888.9502753-.0567986 1.6909199-.3975851 2.221956-1.0223698l3.479667-5.3248432c.1956449-.2839931.5869289-.8661701 1.1738636-1.7465486-.4751376-.8235799-1.6769383-3.1096897-3.6054381-6.8583981-.5589854-1.1075729-.9852054-1.7607471-1.2786728-1.9595423-.2934674-.1987951-.9991759-.3123906-2.1171468-.3407899-.4192391 0-.6288555-.0993961-.6288555-.2981912 0-.2271945.195642-.34079.5869318-.34079l4.737378.0851975c.4751376 0 1.1179612-.0141995 1.9284901-.0425988.922326-.0283993 1.579124-.0425987 1.9704138-.0425987.7266811 0 1.0900162.1135955 1.0900162.34079 0 .2271944-.4891049.3549894-1.4673295.3833887-1.2297679.0283993-1.8446427.1845931-1.8446427.4685862 0 .1987951.2655141.7809721.7965503 1.7465485.8943767 1.7039584 1.5651492 2.9961074 2.0123375 3.8764859l.1676948.34079c.8384782-1.1643716 1.683931-2.4494209 2.5363838-3.8551865.8524528-1.4057657 1.2786728-2.2222335 1.2786728-2.4494279 0-.1703958-.3353862-.241393-1.0061688-.2129937l-.8803976.0425987c-.195645 0-.2934659-.1135955-.2934659-.3407899 0-.2264609.1804963-.3400553.5414943-.3407865zm26.6081917 8.2910137c0 2.8167012-.7929879 5.1686114-2.3789876 7.0558012-1.5859997 1.8871899-3.5579432 2.8307706-5.9158896 2.8307706-1.8526722 0-3.284261-.6759981-4.2948095-2.0280147v9.8443215c0 .6196742.0210528.9858399.063159 1.098508.0421061.112668.1754404.2112511.4000067.2957521.4210619.084501 1.2351026.1267509 2.4421466.1267509.3368495 0 .5052717.1267497.5052717.3802528 0 .1971691-.1824574.2957521-.5473777.2957521h-1.7684509c-.4210619-.028167-.7859767-.0422503-1.0947554-.0422503-.1684247 0-.6315858.0140833-1.3894972.0422503h-4.0000677c-.8140529 0-1.2210733-.098583-1.2210733-.2957521 0-.2535031.1684222-.3802528.5052717-.3802528h1.2631793c.8140529 0 1.2491437-.1830828 1.3052852-.549254.0280708-.169002.042106-1.4646652.042106-3.8870282v-21.0406528c0-.7886763-.37895-1.154842-1.1368613-1.098508-1.1228317-.056334-1.7123094-.0845006-1.768451-.0845006-.2526371 0-.3789538-.0985831-.3789538-.2957522 0-.2535031.3087741-.3802527.9263315-.3802527 1.5438935.028167 2.947412-.3379987 4.2105975-1.098508.3649203-.22533609.645624-.33800245.8421196-.33800245.2245663 0 .3719357.10562471.4421127.31687735.070177.2112525.1193001.8520425.1473709 1.9223889 1.0386193-1.4928516 2.5263489-2.23926625 4.4632334-2.23926625 2.4421588 0 4.4421727.89428925 6.0001016 2.68289445 1.5579289 1.7886053 2.3368816 4.0771407 2.3368816 6.8656749zm-3.8311811-.0244127c0-2.2092148-.3392536-4.0926838-1.017771-5.6504635-.9046899-2.1525683-2.3041111-3.2288363-4.1983055-3.2288363-.9895046 0-1.8376386.3469548-2.5444276 1.0408749-.706789.69392-1.0884493 1.5365246-1.1449924 2.5278389-.0565432 1.2462238-.0424076 3.8660867.0424071 7.8596673.0282715 2.010952.0706782 3.2217535.1272214 3.6324409.0565431.4106873.2403055.8284493.5512926 1.2532983.8198752 1.1612539 1.8800428 1.7418722 3.1805345 1.7418722 1.4701211 0 2.5726953-.6231026 3.3077559-1.8693263 1.1308623-1.8976589 1.696285-4.3334233 1.696285-7.3073664zm22.4567978 7.3977288c0 .4819317-.4998791.9851175-1.4996523 1.5095726-.9997732.524455-1.9643287.7866786-2.8936953.7866786-1.9432212 0-2.9570605-1.0063716-3.0415484-3.0191451-1.0701797 2.0978203-2.7317497 3.1467147-4.9847597 3.1467147-1.2109929 0-2.2107511-.3614434-2.9993047-1.0843409-.7885535-.7228975-1.1828243-1.6513108-1.1828243-2.7852677 0-2.3246116 1.394029-4.1672639 4.182129-5.5280122.9575292-.4535827 2.6190992-.9071587 4.9847597-1.3607414v-1.0630793c0-2.4947051-.1267299-4.138918-.3801935-4.9326878-.450602-1.445795-1.4644413-2.1686817-3.0415484-2.1686817-.9856918 0-1.8094363.2693107-2.471258.8079403-.6618217.5386295-.9927276 1.2189934-.9927276 2.0411122 0 .2267913.1760138.3401853.5280466.3401853s.6688576.170091.9504839.5102781c.2816262.340187.4224373.7228917.4224373 1.1481256 0 1.2473525-.6195685 1.8710195-1.858724 1.8710195-.6477404 0-1.1828223-.2197009-1.6052617-.6591092-.4224393-.4394083-.6336559-.9992911-.6336559-1.6796652 0-1.3323993.5210008-2.4805135 1.5630179-3.4443768 1.1546677-1.0489101 2.7599133-1.57335734 4.8157849-1.57335734 3.0978888 0 4.9988375.85045494 5.7029031 2.55139024.2534637.6520252.3801936 1.9418818.3801936 3.8696085v7.9518329c0 1.3040505.0140811 2.0694599.0422437 2.2962512.1408131 1.0205612.5491651 1.5308342 1.2250681 1.5308342.7885535 0 1.4362842-.283485 1.9432114-.8504634.2816263-.3118382.4928428-.4677549.6336559-.4677549.1408132 0 .2112187.0850455.2112187.255139zm-7.4495188-4.3421121v-3.1218725c-2.1284446.4846767-3.653807 1.1190234-4.576133 1.9030593-.9223259.7840358-1.383482 1.8317771-1.383482 3.1432552 0 .9123326.2625042 1.6607192.7875205 2.2451823.5250164.5844631 1.1848243.8766902 1.9794436.8766902 1.2203082 0 2.199378-.6842392 2.9372388-2.0527381.1702756-.3136143.2554121-1.3114631.2554121-2.9935764zm19.9870865 3.7480998c0 .2550295-.3523467.7084083-1.0570505 1.3601501-1.2120907 1.1051275-2.649665 1.657683-4.3127662 1.657683-1.5503485 0-2.7201394-.3967065-3.5094077-1.1901314-.4510105-.4533856-.6765123-1.7851859-.6765123-3.9954409v-12.6663977c-.0281882-.283366-.1832207-.439215-.4651023-.4675516h-1.6067168c-.6201394 0-.9302044-.0991766-.9302044-.2975328s.1550325-.3117009.4651022-.3400375c2.1986761-.19835625 3.9181277-1.27513097 5.1584065-3.2303565.169129-.25502942.380537-.38254221.6342304-.38254221.197317 0 .2959741.09917662.2959741.29753283v.17001876c-.0281881.14168301-.042282.38254051-.042282.72257974 0 1.19013728.0563755 1.95521405.1691281 2.29525328.2536934.0566732.6765093.0850094 1.2684606.0850094 1.5503485 0 2.5792007-.0708405 3.0865875-.21252348.1127526-.0283366.2114097-.04250469.2959742-.04250469.2255052 0 .3382561.1275128.3382561.38254217 0 .4250491-1.1416031.6375704-3.4248437.6375704-.3946341 0-.9724826-.0141681-1.7335628-.0425047v7.8633677c0 3.9671243.0986571 6.4536238.2959741 7.4595732.1973171 1.0059493.845635 1.5089165 1.944973 1.5089165.9302091 0 1.9731552-.5242193 3.1288695-1.5726736.1127527-.141683.2395975-.2125234.3805382-.2125234.1973171 0 .2959742.0708404.2959742.2125234z"/><path d="m-2.70247459 18.4440991h.93203922v-6.6255271h-.84730838c-.1948819 0-.36434188.0321697-.50838503.09651-.14404314.0643404-.26054688.15262-.3495147.2648415-.08896783.1122216-.16098832.2536186-.21606364.4241954-.05507532.1705767-.09320382.3493804-.11438663.5364163-.02118282.1870359-.03177407.4017499-.03177407.6441485h-.0508385v-2.0199778h5.04148487v2.0199778h-.0508385c0-.2423986-.01059125-.4571126-.03177406-.6441485-.02118282-.1870359-.05931132-.3658396-.11438663-.5364163-.05507533-.1705768-.12709582-.3119738-.21606364-.4241954-.08896783-.1122215-.20547156-.2005011-.34951471-.2648415-.14404315-.0643403-.31350313-.09651-.50838503-.09651h-.84730838v6.6255271h.93203922v.0538661h-2.66902141zm5.02340208 0h.52779522v-6.6255271h-.52779522v-.0538661h1.29394959v4.0489333c.11634254-1.0234606.57886814-1.5351832 1.38759067-1.5351832.24119795 0 .44337555.0329179.60653887.0987545s.28730746.1630939.37243615.2917746.14471788.2693296.17876935.4219509c.03405148.1526213.05107696.3336694.05107696.5431496v2.8100135h.53630805v.0538661h-1.83025764v-.0538661h.52779523v-2.711259c0-.2094803-.00709395-.3882839-.02128207-.5364164-.01418811-.1481324-.03972634-.2895295-.07661543-.4241953-.0368891-.1346659-.09364071-.2356638-.17025653-.3029967s-.17167476-.1009989-.28517968-.1009989c-.85128688 0-1.27692393.7092296-1.27692393 2.12771v1.9481563h.53630805v.0538661h-1.83025764zm9.34519151-1.1786764c-.115103.4095007-.3200394.7388768-.6148153.9881382-.2947759.2492613-.6653457.3738901-1.11172065.3738901-.56709269 0-1.0359197-.1928779-1.40649512-.5786395-.37057541-.3857616-.55586034-.9050482-.55586034-1.5578755s.18177574-1.1721139.54533269-1.5578755c.36355694-.3857616.8274711-.5786395 1.39175639-.5786395.24424293 0 .46532153.0348664.66324243.1046002.197921.0697339.3628526.1632054.4947999.2804176.1319474.1172122.2428376.2566777.332674.4184009.0898365.1617231.1544055.3330877.193709.5140989.0393034.1810112.0589548.3709217.0589548.5697373h-2.78772381c-.00561478.0534132-.00842213.136499-.00842213.2492601 0 .21662.00982572.4191418.02947745.6075714.01965172.1884297.05614724.3746311.10948764.5586097s.12212041.3412483.2063421.4718137c.08422168.1305655.19441007.2359065.33056846.3160262s.29266801.120179.46953359.120179c.4070714 0 .748866-.1209196 1.0253938-.3627625.2765279-.2418428.4709367-.5541566.5832323-.9369508zm-1.74703167-2.9433731c-.18071104 0-.33883082.0490962-.4743641.14729-.13553328.0981939-.24212296.2356632-.31977223.4124122-.07764928.1767489-.1369442.3678464-.17788654.5732981-.04094235.2054518-.06706035.4320496-.07835479.6798003h1.90592723c0-.1299181-.0042354-.2553022-.0127062-.3761562-.0084708-.1208539-.0225887-.2537913-.0423539-.3988161-.0197653-.1450248-.0501187-.2756962-.091061-.3920181-.0409424-.116322-.0917666-.2250889-.1524742-.3263041s-.1383557-.1797691-.2329466-.2356641c-.094591-.055895-.2025924-.083842-.32400767-.083842z" transform="matrix(0 -1 1 0 -11.307372 19.084784)"/><path d="m18.0871038 43.2844073h1.2368741v-13.177275h-1.3239779v-.1071323h3.0312126l3.9893545 11.0703394 3.8151469-11.0703394h2.9266881v.1071323h-1.2194534v13.177275h1.2194534v.1071323h-4.2680867v-.1071323h1.3936609v-13.1237088l-4.5816604 13.409395h-.1045246l-4.755868-13.3201181v13.0344319h1.3239779v.1071323h-2.6827974zm18.9752554-4.4217787h1.0813308v-.9093967c0-.2793585-.0087203-.5289943-.0261612-.7489148-.017441-.2199206-.0566824-.4621268-.1177256-.7266258-.0610431-.264499-.1438862-.4829303-.2485316-.6553005-.1046455-.1723702-.2543443-.317991-.4491011-.436867s-.4258454-.1783131-.6932726-.1783131c-.4883454 0-.9345352.0802401-1.3385828.2407227-.4040477.1604825-.6961785.3477094-.8764012.5616861.4011408-.1367073.7339665-.1114466.9984869.0757831.2645204.1872296.3967786.4353795.3967786.744457 0 .3269089-.1075506.5780307-.3226551.7533727-.2151045.1753421-.4505532.2630118-.7063532.2630118-.2674272 0-.4854353-.0861838-.6540307-.258554-.1685954-.1723701-.2528919-.4130903-.2528919-.7221679 0-.3566279.1496989-.6761023.4491011-.9584327s.6830964-.496304 1.1510941-.641927c.4679976-.1456231.9694161-.2184335 1.5042706-.2184335.5057863 0 .9359888.0579511 1.2906206.1738552s.6249617.2570672.8109981.4234935c.1860363.1664264.3299216.3908014.4316603.6731319.1017386.2823304.1642342.5379099.1874888.7667461.0232545.2288363.0348816.5185921.0348816.8692762v4.6361397c0 .4517287.2092877.6775896.6278695.6775896.1802227 0 .388057-.0906415.6235093-.2719274.2354522-.1812858.4287527-.4353794.5799072-.7622883l.0872041.0356626c-.19185.4279535-.454913.7518856-.7891971.9718062-.334284.2199205-.6990842.3298792-1.0944114.3298792-1.0697089 0-1.6045553-.4933279-1.6045553-1.4799985v-.7310835c-.1279.737031-.3938698 1.2897959-.7979175 1.6583115-.4040476.3685155-.9868559.5527705-1.7484421.5527705-.6918226 0-1.2571902-.2020862-1.6961196-.6062645-.4389295-.4041783-.658391-.9331684-.658391-1.5869862 0-.7786376.3197452-1.3923256.9592451-1.8410824s1.5929218-.6731318 2.8602943-.6731318zm-.8253156 4.3710163c.5587204 0 1.0126739-.2553005 1.3618741-.7659092s.5237977-1.294426.5237977-2.3514756v-1.2003722h-1.0825153c-.6402004 0-1.1407132.2209618-1.5015534.6628921-.3608403.4419303-.5412577.991349-.5412577 1.6482724 0 .6031751.1076685 1.0883954.3230086 1.4556753.2153402.36728.5208858.5509172.916646.5509172zm6.3926377-1.1858661c0-.4930508.2184295-.877684.6552952-1.1539112.4368656-.2762272.9814833-.4499804 1.6338693-.5212649-.6873353-.1188074-1.2610769-.3950304-1.721242-.8286775-.4601651-.433647-.6902443-1.0306452-.6902443-1.7910126 0-.4692893.0946528-.886594.2839613-1.2519268.1893084-.3653328.4397743-.6549215.7514051-.8687748s.6450999-.3742409 1.0004173-.4811676.7193666-.1603892 1.0921587-.1603892c.4718148 0 .9334293.0876192 1.3848571.2628601s.8285828.4321581 1.1314763.7707592c.2271702-.3267204.4951104-.5658167.8038288-.7172962.3087184-.1514794.6057826-.227218.8912014-.227218.4310408 0 .7688785.1217758 1.0135232.365331.2446448.2435551.3669653.5435393.3669653.8999615 0 .368303-.0859156.6385858-.2577494.8108565-.1718338.1722708-.3829824.2584048-.633452.2584048-.232995 0-.4368626-.0787087-.6116088-.2361285-.1747463-.1574198-.2621181-.3757251-.2621181-.6549225 0-.2435552.0859156-.4440397.2577494-.6014595.1718339-.1574198.3829824-.2361286.633452-.2361286.1689214 0 .3247345.041582.4674439.1247472.1427095.0831652.2315375.1900902.2664867.3207784-.0349492-.273257-.1587259-.4989877-.3713339-.6771988-.2126079-.1782111-.5023911-.2673154-.8693583-.2673154-.279594 0-.5650086.0757386-.8562523.2272181-.2912438.1514794-.5475344.3846354-.7688797.6994751.3611423.4455277.5417107.9920336.5417107 1.639534 0 .4692892-.0946528.8821387-.2839613 1.238561-.1893084.3564222-.4412305.6356154-.7557737.837588-.3145433.2019726-.6480124.3519647-1.0004173.4499808-.352405.0980161-.714998.1470234-1.08779.1470234-.1630965 0-.2912419-.0059403-.3844399-.017821-.3960915.0594037-.7339292.1782093-1.0135232.3564204s-.4193889.4158224-.4193889.7128409c0 .1069266.0174744.199001.0524236.2762258.0349493.0772248.0961095.1395978.1834827.1871207.0873731.047523.1689201.0846498.2446435.1113814.0757234.0267317.1936753.0460376.3538594.0579183.1601841.0118808.2912418.0193061.3931771.0222763s.2577484.0044553.4674439.0044553c.2155204 0 .4383185-.0029702.6684011-.0089105.2300825-.0059404.4208443-.0089105.5722911-.0089105.3028935 0 .5679213.0148507.7950915.0445525.2271701.0297019.470355.0995002.7295619.209397.259207.1098969.4718117.259889.6378207.4499808.1660089.1900919.3043476.4544344.4150203.7930355.1106726.3386011.1660081.7425402.1660081 1.2118294 0 .689083-.1747437 1.2786559-.5242362 1.7687364-.3494925.4900806-.7950887.8464975-1.3368021 1.0692613-.5417134.2227639-1.144579.3341442-1.8086147.3341442-.6873353 0-1.306219-.0801938-1.8566697-.2405838s-1.0047841-.4262176-1.363014-.7974907c-.3582298-.3712732-.537342-.8271897-.537342-1.3677634 0-.3504819.0786346-.6653168.2359062-.9445142.1572717-.2791974.3596831-.4975027.6072402-.6549225.2475572-.1574198.4951107-.2791956.7426679-.365331.2475572-.0861353.4878297-.1381128.7208247-.1559339-1.164975-.1366285-1.7474538-.611851-1.7474538-1.4256817zm1.579196-4.2930022c0 .2610456.0043244.4790747.0129732.6540939.0086489.1750192.0273878.3708005.0562174.5873497.0288295.2165492.0763976.3960154.1427056.5384039s.1513539.2773589.2551403.4049153c.1037865.1275564.2392834.2224806.4064948.2847756.1672115.062295.3603666.093442.5794713.093442.4785707 0 .8403763-.247693 1.0854275-.7430863.2450513-.4953934.3675751-1.1020187.3675751-1.8198941 0-.4627627-.0475681-.8884387-.1427056-1.2770406-.0951376-.388602-.2565807-.7149041-.4843342-.9789162-.2277535-.264012-.5030717-.3960161-.8259628-.3960161s-.5982093.1320041-.8259628.3960161c-.2277535.2640121-.3891967.5903142-.4843342.9789162-.0951376.3886019-.1427056.8142779-.1427056 1.2770406zm-.4386423 7.4483235c0 .320038.0405951.6311815.1217865.9334397s.2073262.5882138.3784081.8578755c.1710818.2696617.4074033.4859805.7089714.6489629.3015681.1629823.6524257.2444723 1.0525833.2444723.9047043 0 1.6586132-.2385434 2.2617494-.7156371.6031362-.4770938.9046997-1.1156787.9046997-1.9157739 0-.5748832-.223273-1.0030759-.6698257-1.2845909-.4465528-.2815149-.9887873-.4222703-1.6267198-.4222703h-1.6354187c-.3015681 0-.5219415-.0118531-.6611268-.0355596-.3363644.2015054-.5596374.4444937-.6698257.728972-.1101884.2844782-.1652817.6045115-.1652817.9601094zm18.5140563-6.3404715h1.0813308v-.9093967c0-.2793585-.0087203-.5289943-.0261612-.7489148-.0174409-.2199206-.0566824-.4621268-.1177256-.7266258-.0610431-.264499-.1438862-.4829303-.2485316-.6553005-.1046455-.1723702-.2543443-.317991-.4491011-.436867s-.4258453-.1783131-.6932726-.1783131c-.4883453 0-.9345352.0802401-1.3385828.2407227-.4040477.1604825-.6961785.3477094-.8764012.5616861.4011409-.1367073.7339665-.1114466.9984869.0757831.2645204.1872296.3967786.4353795.3967786.744457 0 .3269089-.1075506.5780307-.3226551.7533727-.2151045.1753421-.4505532.2630118-.7063532.2630118-.2674272 0-.4854353-.0861838-.6540307-.258554-.1685954-.1723701-.2528919-.4130903-.2528919-.7221679 0-.3566279.1496989-.6761023.4491011-.9584327s.6830964-.496304 1.1510941-.641927c.4679976-.1456231.9694161-.2184335 1.5042706-.2184335.5057863 0 .9359889.0579511 1.2906206.1738552.3546318.1159041.6249618.2570672.8109981.4234935.1860363.1664264.3299216.3908014.4316603.6731319.1017386.2823304.1642342.5379099.1874888.7667461.0232545.2288363.0348816.5185921.0348816.8692762v4.6361397c0 .4517287.2092877.6775896.6278695.6775896.1802227 0 .388057-.0906415.6235093-.2719274.2354522-.1812858.4287527-.4353794.5799072-.7622883l.0872041.0356626c-.19185.4279535-.454913.7518856-.7891971.9718062-.334284.2199205-.6990841.3298792-1.0944114.3298792-1.0697089 0-1.6045553-.4933279-1.6045553-1.4799985v-.7310835c-.1279.737031-.3938698 1.2897959-.7979175 1.6583115-.4040476.3685155-.9868558.5527705-1.7484421.5527705-.6918226 0-1.2571902-.2020862-1.6961196-.6062645-.4389295-.4041783-.6583909-.9331684-.6583909-1.5869862 0-.7786376.3197451-1.3923256.959245-1.8410824s1.5929218-.6731318 2.8602943-.6731318zm-.8253156 4.3710163c.5587204 0 1.0126739-.2553005 1.3618741-.7659092s.5237977-1.294426.5237977-2.3514756v-1.2003722h-1.0825153c-.6402004 0-1.1407132.2209618-1.5015534.6628921s-.5412577.991349-.5412577 1.6482724c0 .6031751.1076685 1.0883954.3230086 1.4556753.2153402.36728.5208858.5509172.916646.5509172zm10.1134641-7.9679805c-.4831859 0-.8906859.0667405-1.2225123.2002235-.3318265.1334829-.5879693.3366707-.7684363.6095692-.1804671.2728986-.3070831.5799049-.3798521.9210281-.0727689.3411232-.1091529.7489817-.1091529 1.2235879h-.1047868v-3.0611946h6.3046708v.1067859l-4.9075138 7.9733441h2.2005222c.5937947 0 1.079884-.0593249 1.4582826-.1779764.3783985-.1186515.6723807-.3144237.8819553-.5873222.2095746-.2728986.3521996-.5947361.4278793-.9655222s.113519-.8498345.113519-1.4371597h.1047868v3.2747664h-7.0731071v-.1067859l4.8900493-7.9733441zm7.767123-1.7228168c-.2025685-.2071661-.3038512-.4587213-.3038512-.7546729s.1012827-.5475067.3038512-.7546729c.2025684-.2071661.4485407-.3107477.7379242-.3107477.2893836 0 .5353559.1035816.7379243.3107477.2025685.2071662.3038512.4587213.3038512.7546729s-.1012827.5475068-.3038512.7546729c-.2025684.2071662-.4485407.3107477-.7379243.3107477-.2893835 0-.5353558-.1035815-.7379242-.3107477zm-1.245568 9.6961609h1.0751837v-7.9733441h-1.0751837v-.1067859h2.6359342v8.08013h1.0925253v.1067859h-3.7284595zm5.7571801.0001245h1.0786805v-7.9640485h-1.0786805v-.1066614h2.644507v2.8976338c.2377748-2.0502787 1.1830606-3.0754027 2.8358857-3.0754027.4871484 0 .895999.0651813 1.2265641.1955458.330565.1303646.5842843.3214643.7611656.5733049s.3015662.5303425.3740585.835514c.0724924.3051715.108738.66515.108738 1.0799463v5.5641678h1.0960785v.1066614h-3.7405854v-.1066614h1.0786804v-5.368622c0-.4147962-.0144982-.7688492-.0434952-1.0621694-.0289969-.2933202-.0811906-.5733035-.1565826-.8399582-.075392-.2666548-.191378-.4666428-.3479614-.5999702-.1565835-.1333274-.35086-.1999901-.5828355-.1999901-.4349539 0-.8162579.0962906-1.1439232.2888746s-.5813846.4310882-.7611656.71552c-.179781.2844317-.3262133.6266335-.4393013 1.0266156-.1130881.3999821-.1855793.768849-.2174759 1.1066116-.0318967.3377627-.0478447.6962598-.0478447 1.0755021v3.857586h1.0960785v.1066614h-3.7405855zm18.1488251-2.4037358c-.237808.8222004-.661215 1.4835255-1.270235 1.9839953s-1.3746332.750701-2.2968633.750701c-1.1716381 0-2.1402551-.3872625-2.90588-1.1617991s-1.1484316-1.8171664-1.1484316-3.1279206.3755566-2.3533839 1.126681-3.1279205c.7511245-.7745366 1.7095913-1.1617991 2.8754292-1.1617991.5046164 0 .9613744.0700051 1.3702878.2100175.4089129.1400124.7496689.3276858 1.0222779.5630257.272609.23534.501713.5153606.687319.8400701.185606.3247096.319009.6687774.400211 1.0322138.081203.3634364.121804.744741.121804 1.1439252h-5.7595591c-.0116004.1072436-.0174005.2740643-.0174005.5004673 0 .4349321.0203004.8415577.0609017 1.2198891.0406013.3783313.1160026.7521885.2262062 1.1215829s.2523061.6851622.4263118.9473131c.1740056.2621508.4016596.4736557.6829688.634521.2813091.1608653.6046648.2412967.9700767.2412967.8410274 0 1.5471894-.2427838 2.1185084-.7283586.571319-.4855749.972976-1.1126422 1.204983-1.8812208zm-3.6363446-5.7325935c-.37431 0-.7018263.0971953-.9825588.2915888s-.5015136.4665403-.6623499.8164486-.2836549.7282223-.3684595 1.1349533-.1389033.8553246-.1622976 1.3457944h3.9477804c0-.2571976-.008773-.5054194-.026318-.7446729-.017546-.2392535-.046789-.5024285-.087729-.7895327-.0409399-.2871043-.1038113-.5457933-.188616-.7760748-.0848046-.2302815-.1900777-.4456065-.3158224-.6459813-.1257448-.2003748-.2865787-.3558873-.4825065-.4665421-.1959279-.1106547-.4196332-.1659813-.6711227-.1659813z"/></g></svg>