<svg height="48" width="102" xmlns="http://www.w3.org/2000/svg"><mask id="a" fill="#fff"><path d="M0 0h115v50H0z" fill-rule="evenodd"/></mask><g fill="#585a5c" fill-rule="evenodd" mask="url(#a)"><path d="M28.394 22.758c0 .113-.028.806-.084 2.077a82.778 82.778 0 0 0-.084 3.645v1.398c-2.75-.14-8.194-.212-16.332-.212-.982 0-1.95.015-2.904.043H6.633c-.533 0-.8-.127-.8-.382 0-.17.084-.268.253-.296.084 0 .617-.043 1.6-.127.729-.057 1.17-.212 1.325-.467.154-.254.232-.918.232-1.991V2.628c0-.82-.12-1.307-.358-1.463C8.646 1.01 7.882.932 6.59.932c-.45 0-.674-.127-.674-.381S6.226.17 6.843.17l7.198.042c.253 0 1.838-.014 4.756-.042h5.893c.842 0 1.614-.057 2.315-.17.057 1.215.183 2.896.38 5.043l.168 1.823c.028.14.042.325.042.55 0 .283-.127.424-.38.424-.308 0-.532-.353-.673-1.06-.533-2.542-1.403-4.152-2.61-4.83-.897-.51-3.254-.763-7.07-.763H13.41v12.417h1.01c3.143 0 5.058-.24 5.745-.72s1.158-1.88 1.41-4.196c.057-.593.211-.89.464-.89.308 0 .463.254.463.763 0 .508-.029 1.257-.085 2.246a43.073 43.073 0 0 0-.084 2.246c0 3.023.056 5.1.169 6.23.028.283.042.523.042.72 0 .368-.155.552-.463.552-.197 0-.33-.12-.4-.36s-.19-1.025-.358-2.353c-.225-1.667-.912-2.698-2.063-3.094-.505-.17-1.824-.254-3.956-.254H13.41v14.24c6.173 0 9.793-.127 10.86-.381 1.851-.424 2.904-2.232 3.156-5.425.056-.706.239-1.06.548-1.06.28 0 .42.297.42.89zm13.58-11.753c-.158 0 .319.029 1.428.085.28.029.56.043.839.043 1.733-.085 2.487-.128 2.264-.128h.46c.196-.028.336-.042.42-.042.335 0 .503.085.503.255 0 .142-.077.249-.23.32s-.538.106-1.153.106c-.81 0-1.342.114-1.593.34-.252.228-.518.583-.797 1.066l-.797 1.363a52.48 52.48 0 0 1-1.593 2.513l-1.383 2.088.713 1.235c.223.398.796 1.448 1.718 3.152.448.796 1.216 2.145 2.306 4.047.364.625.713 1.03 1.048 1.214.336.185.902.277 1.698.277.797 0 1.195.114 1.195.341 0 .227-.251.34-.755.34h-.46a3.864 3.864 0 0 0-.63-.042l-4.15-.042c-1.034 0-1.873.014-2.515.042-.476.029-.88.043-1.216.043-.503 0-.755-.114-.755-.341 0-.17.084-.27.252-.298.167-.029.768-.043 1.802-.043.783 0 1.174-.128 1.174-.383 0-.199-.14-.54-.419-1.023a397.391 397.391 0 0 0-3.102-5.495l-.252-.426c-2.879 4.175-4.318 6.49-4.318 6.944 0 .255.783.397 2.348.426.28 0 .419.1.419.298 0 .256-.238.383-.713.383-.167 0-.475-.014-.922-.042a28.129 28.129 0 0 0-1.719-.043h-.377c-.392 0-.755.014-1.09.043l-.839-.043a12.78 12.78 0 0 1-.67.043c-.308 0-.462-.114-.462-.341 0-.227.308-.355.923-.383.95-.057 1.69-.398 2.222-1.023l3.48-5.325c.195-.284.586-.866 1.173-1.746-.475-.824-1.677-3.11-3.605-6.859-.56-1.107-.986-1.76-1.279-1.96-.293-.198-1-.311-2.117-.34-.42 0-.629-.1-.629-.298 0-.227.196-.34.587-.34l4.737.084c.475 0 1.118-.014 1.929-.042.922-.029 1.579-.043 1.97-.043.727 0 1.09.114 1.09.341 0 .227-.489.355-1.467.383-1.23.029-1.845.185-1.845.469 0 .199.266.78.797 1.746a355.056 355.056 0 0 1 2.012 3.877l.168.34a58.62 58.62 0 0 0 2.536-3.854c.853-1.406 1.279-2.223 1.279-2.45 0-.17-.335-.241-1.006-.213l-.88.043c-.196 0-.294-.114-.294-.341 0-.227.18-.34.541-.34zm26.607 8.291c0 2.817-.793 5.169-2.379 7.056-1.586 1.887-3.557 2.83-5.915 2.83-1.853 0-3.285-.675-4.295-2.027v9.844c0 .62.02.986.063 1.099.042.112.175.21.4.295.421.085 1.235.127 2.442.127.337 0 .505.127.505.38 0 .197-.182.296-.547.296h-1.768a16.703 16.703 0 0 0-1.095-.042c-.169 0-.632.014-1.39.042h-4c-.814 0-1.22-.099-1.22-.296 0-.253.168-.38.504-.38h1.264c.814 0 1.249-.183 1.305-.55.028-.168.042-1.464.042-3.886v-21.04c0-.79-.379-1.156-1.137-1.1a155.053 155.053 0 0 0-1.768-.084c-.253 0-.38-.098-.38-.296 0-.253.31-.38.927-.38 1.544.028 2.947-.338 4.21-1.098.366-.226.646-.338.843-.338.224 0 .372.105.442.316.07.212.12.853.147 1.923 1.039-1.493 2.527-2.24 4.463-2.24 2.443 0 4.443.895 6 2.684 1.559 1.788 2.337 4.077 2.337 6.865zm-3.83-.024c0-2.21-.34-4.093-1.018-5.65-.905-2.153-2.305-3.23-4.199-3.23-.99 0-1.837.347-2.544 1.041a3.724 3.724 0 0 0-1.145 2.528c-.057 1.246-.043 3.866.042 7.86.028 2.01.07 3.222.127 3.632.057.411.24.829.552 1.254.82 1.16 1.88 1.741 3.18 1.741 1.47 0 2.573-.623 3.308-1.869 1.13-1.898 1.696-4.333 1.696-7.307zm22.456 7.398c0 .481-.5.985-1.5 1.51-1 .524-1.964.786-2.893.786-1.943 0-2.957-1.007-3.042-3.02-1.07 2.098-2.732 3.147-4.985 3.147-1.21 0-2.21-.361-2.999-1.084-.788-.723-1.183-1.651-1.183-2.785 0-2.325 1.394-4.168 4.182-5.528.958-.454 2.62-.907 4.985-1.361v-1.063c0-2.495-.127-4.139-.38-4.933-.45-1.446-1.464-2.168-3.042-2.168-.985 0-1.809.269-2.47.807-.663.54-.994 1.22-.994 2.042 0 .226.176.34.529.34s.668.17.95.51c.282.34.422.723.422 1.148 0 1.248-.62 1.871-1.858 1.871-.648 0-1.183-.22-1.606-.659-.422-.44-.633-1-.633-1.68 0-1.332.52-2.48 1.563-3.444 1.154-1.049 2.76-1.573 4.816-1.573 3.097 0 4.998.85 5.703 2.551.253.652.38 1.942.38 3.87v7.951c0 1.305.014 2.07.042 2.297.14 1.02.55 1.53 1.225 1.53.789 0 1.436-.283 1.943-.85.282-.312.493-.468.634-.468.14 0 .211.085.211.256zm-7.45-4.343v-3.121c-2.128.484-3.653 1.119-4.576 1.903-.922.784-1.383 1.831-1.383 3.143 0 .912.262 1.66.787 2.245.525.584 1.185.877 1.98.877 1.22 0 2.2-.685 2.937-2.053.17-.314.256-1.311.256-2.994zm19.988 3.748c0 .256-.353.709-1.057 1.36-1.212 1.106-2.65 1.658-4.313 1.658-1.55 0-2.72-.396-3.51-1.19-.45-.453-.676-1.785-.676-3.995V11.24c-.028-.283-.183-.439-.465-.467h-1.607c-.62 0-.93-.1-.93-.298s.155-.311.465-.34c2.199-.198 3.918-1.275 5.158-3.23.17-.255.38-.383.635-.383.197 0 .296.1.296.298v.17a4.222 4.222 0 0 0-.043.722c0 1.19.057 1.956.17 2.296.253.056.676.085 1.268.085 1.55 0 2.58-.071 3.087-.213.112-.028.21-.042.295-.042.226 0 .339.127.339.382 0 .425-1.142.638-3.425.638-.395 0-.973-.014-1.734-.043v7.864c0 3.967.099 6.453.296 7.46.198 1.005.846 1.508 1.945 1.508.93 0 1.973-.524 3.13-1.573.112-.141.239-.212.38-.212.197 0 .296.07.296.212z"/><path d="M7.137 21.787v-.932H.51v.848c0 .194.032.364.097.508a.91.91 0 0 0 .265.35c.112.088.253.16.424.215.17.056.35.094.536.115.187.021.402.032.644.032v.05H.457v-5.041h2.02v.05c-.242 0-.457.011-.644.033-.187.02-.366.059-.536.114-.17.055-.312.127-.424.216a.91.91 0 0 0-.265.35 1.238 1.238 0 0 0-.097.508v.847h6.626v-.932h.054v2.67zm0-5.023v-.528H.51v.528H.457V15.47h4.05c-1.024-.116-1.536-.579-1.536-1.388 0-.24.033-.443.099-.606s.163-.288.292-.373.269-.144.422-.178c.152-.034.333-.052.543-.052h2.81v-.536h.054v1.83h-.054v-.527H4.425c-.209 0-.388.007-.536.02-.148.015-.29.04-.424.078-.135.036-.236.093-.303.17s-.101.171-.101.285c0 .851.71 1.277 2.128 1.277h1.948v-.536h.054v1.83zM5.958 7.419c.41.115.739.32.988.614.25.295.374.666.374 1.112 0 .567-.193 1.036-.579 1.407-.385.37-.905.556-1.557.556s-1.173-.182-1.558-.546c-.386-.363-.579-.827-.579-1.392 0-.244.035-.465.105-.663.07-.198.163-.363.28-.495.117-.132.257-.242.418-.332a1.87 1.87 0 0 1 .515-.194c.18-.04.37-.059.57-.059v2.788a5.872 5.872 0 0 0 .857-.021c.188-.02.374-.056.558-.11s.341-.122.472-.206c.13-.084.235-.194.316-.33s.12-.293.12-.47c0-.407-.121-.749-.363-1.026a1.937 1.937 0 0 0-.937-.583zM3.015 9.166c0 .18.049.339.147.474a.983.983 0 0 0 .412.32c.177.077.368.137.574.178.205.04.432.067.68.078V8.31a5.383 5.383 0 0 0-.775.055 1.784 1.784 0 0 0-.718.244.625.625 0 0 0-.32.557z"/><path d="M18.087 43.284h1.237V30.107H18V30h3.031l3.99 11.07L28.836 30h2.926v.107h-1.22v13.177h1.22v.108h-4.268v-.108h1.394V30.161l-4.582 13.41h-.104L19.446 30.25v13.034h1.324v.108h-2.683zm18.975-4.421h1.082v-.91c0-.28-.009-.529-.026-.749a5.023 5.023 0 0 0-.118-.726 2.23 2.23 0 0 0-.249-.656 1.313 1.313 0 0 0-1.142-.615c-.488 0-.935.08-1.339.24-.404.161-.696.349-.876.563.401-.137.734-.112.998.075a.87.87 0 0 1 .397.745c0 .327-.107.578-.322.753-.216.176-.451.263-.707.263a.875.875 0 0 1-.654-.258c-.168-.173-.253-.413-.253-.722 0-.357.15-.677.45-.959s.682-.496 1.15-.642c.468-.145.97-.218 1.505-.218.506 0 .936.058 1.29.174s.625.257.811.423c.186.167.33.39.432.673.102.283.164.538.187.767.024.229.035.519.035.87v4.635c0 .452.21.678.628.678.18 0 .388-.09.624-.272.235-.181.428-.435.58-.762l.087.035c-.192.428-.455.752-.79.972-.334.22-.698.33-1.094.33-1.07 0-1.604-.493-1.604-1.48v-.731c-.128.737-.394 1.29-.798 1.658-.404.369-.987.553-1.749.553-.691 0-1.257-.202-1.696-.606-.439-.404-.658-.933-.658-1.587 0-.779.32-1.392.96-1.841s1.592-.673 2.86-.673zm-.825 4.37c.559 0 1.013-.255 1.362-.765s.524-1.295.524-2.352v-1.2H37.04c-.64 0-1.14.22-1.501.663-.361.442-.542.991-.542 1.648 0 .603.108 1.088.323 1.456.216.367.521.55.917.55zm6.393-1.185c0-.493.218-.878.655-1.154.437-.276.981-.45 1.634-.521-.687-.12-1.261-.395-1.721-.83-.46-.433-.69-1.03-.69-1.79 0-.47.094-.887.283-1.252.19-.365.44-.655.752-.869s.645-.374 1-.481.72-.16 1.092-.16c.472 0 .934.087 1.385.263s.829.432 1.132.77c.227-.326.495-.566.803-.717.31-.152.606-.227.892-.227.43 0 .769.122 1.013.365.245.244.367.544.367.9 0 .368-.086.639-.258.81a.86.86 0 0 1-.633.26.885.885 0 0 1-.612-.237c-.174-.157-.262-.376-.262-.655a.78.78 0 0 1 .258-.601.903.903 0 0 1 .633-.236c.17 0 .325.041.468.124.143.084.231.19.266.321a1.025 1.025 0 0 0-.371-.677c-.213-.178-.502-.267-.87-.267-.279 0-.564.075-.856.227a2.173 2.173 0 0 0-.768.7c.36.445.541.991.541 1.639 0 .47-.094.882-.284 1.238-.189.357-.44.636-.755.838a3.656 3.656 0 0 1-1 .45 4.04 4.04 0 0 1-1.473.13c-.396.059-.734.177-1.014.356s-.42.415-.42.713c0 .106.018.199.053.276.035.077.096.14.184.187.087.047.169.085.244.111.076.027.194.046.354.058a9.115 9.115 0 0 0 .861.027c.216 0 .438-.003.668-.009.23-.006.421-.009.573-.009.303 0 .568.015.795.045.227.03.47.1.73.209.259.11.471.26.637.45.166.19.304.454.415.793.11.339.166.743.166 1.212 0 .689-.175 1.279-.524 1.769-.35.49-.795.846-1.337 1.069a4.714 4.714 0 0 1-1.808.334c-.688 0-1.307-.08-1.857-.24s-1.005-.427-1.363-.798c-.358-.371-.538-.827-.538-1.368 0-.35.08-.665.236-.944.158-.28.36-.498.608-.655.247-.158.495-.28.742-.366.248-.086.488-.138.721-.156-1.165-.136-1.747-.611-1.747-1.425zm1.579-4.293c0 .26.004.479.013.654.008.175.027.37.056.587.029.217.076.396.143.539s.151.277.255.405a.93.93 0 0 0 .406.284c.168.063.36.094.58.094.478 0 .84-.248 1.085-.743.245-.496.368-1.102.368-1.82 0-.463-.048-.889-.143-1.277a2.313 2.313 0 0 0-.484-.98c-.228-.263-.503-.395-.826-.395s-.598.132-.826.396c-.228.264-.39.59-.484.979a5.367 5.367 0 0 0-.143 1.277zm-.439 7.448c0 .32.04.631.122.934s.207.588.378.857c.172.27.408.486.71.65a2.18 2.18 0 0 0 1.052.244c.905 0 1.659-.239 2.262-.716s.904-1.115.904-1.916c0-.574-.223-1.003-.67-1.284-.446-.282-.988-.422-1.626-.422h-1.636c-.301 0-.521-.012-.66-.036-.337.202-.56.445-.67.729a2.64 2.64 0 0 0-.166.96zm18.514-6.34h1.082v-.91c0-.28-.01-.529-.027-.749a5.023 5.023 0 0 0-.117-.726 2.23 2.23 0 0 0-.249-.656 1.313 1.313 0 0 0-1.142-.615c-.489 0-.935.08-1.339.24-.404.161-.696.349-.876.563.401-.137.734-.112.998.075a.87.87 0 0 1 .397.745c0 .327-.107.578-.323.753-.215.176-.45.263-.706.263a.875.875 0 0 1-.654-.258c-.169-.173-.253-.413-.253-.722 0-.357.15-.677.45-.959s.682-.496 1.15-.642c.468-.145.97-.218 1.505-.218.505 0 .936.058 1.29.174.355.115.625.257.811.423.186.167.33.39.432.673.102.283.164.538.187.767.024.229.035.519.035.87v4.635c0 .452.21.678.628.678.18 0 .388-.09.624-.272.235-.181.428-.435.58-.762l.087.035c-.192.428-.455.752-.79.972-.334.22-.698.33-1.094.33-1.07 0-1.604-.493-1.604-1.48v-.731c-.128.737-.394 1.29-.798 1.658-.404.369-.987.553-1.749.553-.692 0-1.257-.202-1.696-.606-.439-.404-.658-.933-.658-1.587 0-.779.32-1.392.959-1.841s1.593-.673 2.86-.673zm-.825 4.37c.559 0 1.013-.255 1.362-.765s.524-1.295.524-2.352v-1.2h-1.083c-.64 0-1.14.22-1.501.663s-.542.991-.542 1.648c0 .603.108 1.088.323 1.456.216.367.521.55.917.55zm10.113-7.967c-.483 0-.89.066-1.222.2a1.615 1.615 0 0 0-.769.61c-.18.272-.307.58-.38.92-.072.342-.109.75-.109 1.224h-.104V35.16h6.304v.107l-4.907 7.973h2.2c.594 0 1.08-.06 1.459-.178.378-.119.672-.314.882-.587.21-.273.352-.595.427-.966s.114-.85.114-1.437h.105v3.275h-7.073v-.107l4.89-7.973zm7.768-1.723c-.203-.207-.304-.459-.304-.755s.101-.547.304-.754a.993.993 0 0 1 .737-.311c.29 0 .536.103.738.31.203.208.304.46.304.755s-.101.548-.304.755a.993.993 0 0 1-.738.31.993.993 0 0 1-.737-.31zm-1.246 9.696h1.075v-7.973h-1.075v-.107h2.636v8.08h1.092v.107h-3.728zm5.757 0h1.079v-7.964H83.85v-.107h2.645v2.898c.237-2.05 1.183-3.075 2.836-3.075.487 0 .896.065 1.226.195.33.13.584.322.761.574s.302.53.374.835c.073.305.11.665.11 1.08v5.564h1.095v.107h-3.74v-.107h1.078v-5.368c0-.415-.014-.77-.043-1.063a4.827 4.827 0 0 0-.157-.84c-.075-.266-.191-.466-.348-.6a.868.868 0 0 0-.583-.2 2.216 2.216 0 0 0-1.905 1.005c-.18.284-.326.626-.439 1.026-.113.4-.186.77-.217 1.107-.032.338-.048.696-.048 1.076v3.857h1.096v.107h-3.74zM102 40.835c-.238.823-.661 1.484-1.27 1.984s-1.375.751-2.297.751c-1.172 0-2.14-.387-2.906-1.162s-1.148-1.817-1.148-3.128.375-2.353 1.126-3.128c.751-.774 1.71-1.161 2.876-1.161.504 0 .961.07 1.37.21.409.14.75.327 1.022.563.273.235.502.515.688.84.185.324.319.669.4 1.032.081.363.122.745.122 1.144h-5.76a5.148 5.148 0 0 0-.017.5c0 .435.02.842.06 1.22.041.379.117.752.227 1.122s.252.685.426.947c.174.262.402.474.683.635.281.16.605.241.97.241.841 0 1.547-.243 2.119-.728.57-.486.973-1.113 1.205-1.882zm-3.636-5.732c-.375 0-.702.097-.983.291s-.501.467-.662.817-.284.728-.369 1.135-.139.855-.162 1.346h3.948a10.187 10.187 0 0 0-.114-1.535 3.798 3.798 0 0 0-.189-.776 3.462 3.462 0 0 0-.316-.646 1.347 1.347 0 0 0-.482-.466 1.34 1.34 0 0 0-.671-.166z"/></g></svg>