<svg height="20" viewBox="0 0 20 20" width="20" xmlns="http://www.w3.org/2000/svg" xmlns:xlink="http://www.w3.org/1999/xlink"><mask id="a" fill="#fff"><path d="m0 0h28v29h-28z" fill="#fff" fill-rule="evenodd"/></mask><path d="m13.8778709 18.6129032c-4.35082796 0-7.8778709-3.4950674-7.8778709-7.8064516 0-4.31138416 3.52704294-7.8064516 7.8778709-7.8064516 4.3508279 0 7.8778709 3.49506744 7.8778709 7.8064516 0 4.3113842-3.527043 7.8064516-7.8778709 7.8064516zm0-.8673835c3.8674026 0 7.0025519-3.1067266 7.0025519-6.9390681 0-3.83234148-3.1351493-6.93906809-7.0025519-6.93906809s-7.00255191 3.10672661-7.00255191 6.93906809c0 3.8323415 3.13514931 6.9390681 7.00255191 6.9390681zm-.3778709 1.2544803h.4323402c.2761423 0 .5.2238576.5.5v6.0967742c0 .2761424-.2238577.5-.5.5h-.4323402c-.2761424 0-.5-.2238576-.5-.5v-6.0967742c0-.2761424.2238576-.5.5-.5z" fill="#9b9da0" mask="url(#a)" transform="matrix(.70710678 -.70710678 .70710678 .70710678 -9.222529 10.074261)"/></svg>