<?xml version="1.0" encoding="UTF-8"?>
<svg width="102px" height="48px" viewBox="0 0 102 48" version="1.1" xmlns="http://www.w3.org/2000/svg" xmlns:xlink="http://www.w3.org/1999/xlink">
    <!-- Generator: Sketch 52.6 (67491) - http://www.bohemiancoding.com/sketch -->
    <title>Logo</title>
    <desc>The Expat Magazine Logo</desc>
    <g id="Symbols" stroke="none" stroke-width="1" fill="none" fill-rule="evenodd">
        <g id="Logo" fill="#585A5C">
            <g transform="translate(0.000000, 0.000000)">
                <path d="M28.3944592,22.7584168 C28.3944592,22.8714325 28.366398,23.5636431 28.3102748,24.8350694 C28.2541517,26.1064957 28.2260905,27.3213959 28.2260905,28.4798065 L28.2260905,29.8783685 C25.4760554,29.7370989 20.03219,29.6664651 11.894331,29.6664651 C10.9121756,29.6664651 9.94406556,29.6805919 8.98997175,29.7088458 L6.63281059,29.7088458 C6.09964052,29.7088458 5.83305948,29.5817051 5.83305948,29.3274198 C5.83305948,29.1578963 5.91724297,29.0590091 6.08561246,29.0307552 C6.16979721,29.0307552 6.70295928,28.9883749 7.68511468,28.9036132 C8.41471583,28.8471053 8.85667913,28.6917111 9.01101783,28.4374259 C9.16535654,28.1831406 9.24252473,27.5191835 9.24252473,26.4455346 L9.24252473,2.6276012 C9.24252473,1.80823759 9.12326479,1.32086482 8.88474134,1.16546827 C8.64621789,1.01007173 7.88155123,0.932374619 6.59071843,0.932374619 C6.1417331,0.932374619 5.91724381,0.805233897 5.91724381,0.550948638 C5.91724381,0.29666338 6.22591659,0.169522658 6.84327141,0.169522658 L14.0410314,0.211903322 C14.2935856,0.211903322 15.8790413,0.197776576 18.7974459,0.169522658 L24.6903488,0.169522658 C25.5321963,0.169522658 26.3038782,0.11301567 27.0054178,0 C27.0615409,1.21491846 27.1878162,2.89600134 27.3842472,5.04329907 L27.5526159,6.86566765 C27.5806775,7.00693723 27.5947081,7.19058494 27.5947081,7.41661628 C27.5947081,7.69915546 27.4684328,7.84042293 27.2158786,7.84042293 C26.9072012,7.84042293 26.6827119,7.48725426 26.542404,6.78090632 C26.0092339,4.23805373 25.1393379,2.62760459 23.9326898,1.94951057 C23.0347192,1.44094005 20.6775816,1.18665861 16.8612063,1.18665861 L13.4096489,1.18665861 L13.4096489,13.6041933 L14.4198609,13.6041933 C17.5627581,13.6041933 19.4779324,13.3640386 20.1654412,12.883722 C20.85295,12.4034054 21.3229744,11.0048575 21.5755287,8.68803622 C21.6316518,8.09470395 21.7859882,7.79804226 22.0385425,7.79804226 C22.3472199,7.79804226 22.5015563,8.05232371 22.5015563,8.56089423 C22.5015563,9.06946474 22.4734951,9.81818233 22.4173719,10.8070694 C22.3612488,11.7959566 22.3331876,12.5446741 22.3331876,13.0532447 C22.3331876,16.0764138 22.3893099,18.1530456 22.5015563,19.2832023 C22.5296178,19.5657415 22.5436484,19.8058962 22.5436484,20.0036736 C22.5436484,20.3709746 22.389312,20.5546223 22.0806346,20.5546223 C21.8842036,20.5546223 21.750913,20.4345449 21.6807591,20.1943866 C21.6106051,19.9542283 21.4913452,19.1701939 21.3229757,17.8422597 C21.098483,16.1752786 20.4109846,15.1440261 19.2604597,14.7484712 C18.7553512,14.5789477 17.4364766,14.4941873 15.3037963,14.4941873 L13.4096489,14.4941873 L13.4096489,28.7340905 C19.5831971,28.7340905 23.203087,28.6069498 24.2694271,28.3526645 C26.1214916,27.9288558 27.1737852,26.1206322 27.4263394,22.9279395 C27.4824626,22.2215915 27.6648601,21.8684229 27.9735375,21.8684229 C28.2541534,21.8684229 28.3944592,22.1650846 28.3944592,22.7584168 Z M41.9732838,11.0051702 C41.8162527,11.0055867 42.2925868,11.033984 43.4023002,11.0903631 C43.6817929,11.1187624 43.9612815,11.1329618 44.2407742,11.1329618 C45.9736291,11.0477639 46.7282481,11.0051656 46.5046539,11.0051656 L46.9658146,11.0051656 C47.1614595,10.9767663 47.3012038,10.9625668 47.3850516,10.9625668 C47.7204428,10.9625668 47.888136,11.0477635 47.888136,11.2181593 C47.888136,11.3601558 47.8112766,11.4666516 47.6575556,11.5376499 C47.5038346,11.6086482 47.1195379,11.6441468 46.5046539,11.6441468 C45.694125,11.6441468 45.1630968,11.7577423 44.9115534,11.9849367 C44.6600099,12.2121312 44.3944958,12.5671172 44.1150031,13.0499054 L43.3184528,14.4130652 C42.9551123,15.03785 42.4240841,15.8756169 41.7253523,16.9263912 L40.3418702,19.0137298 L41.0545731,20.2490934 C41.2781673,20.6466837 41.8511187,21.6974422 42.7734447,23.4014006 C43.2206331,24.1965811 43.9892265,25.5455279 45.0792481,27.4482814 C45.4425887,28.0730661 45.7919493,28.4777502 46.1273406,28.6623456 C46.4627319,28.8469411 47.0286962,28.9392375 47.8252504,28.9392375 C48.6218047,28.9392375 49.0200758,29.052833 49.0200758,29.2800275 C49.0200758,29.5072219 48.7685361,29.6208174 48.2654492,29.6208174 L47.8042886,29.6208174 C47.6365929,29.5924181 47.4269765,29.5782187 47.1754331,29.5782187 L43.0249869,29.5356199 C41.9908638,29.5356199 41.1523983,29.5498194 40.509565,29.5782187 C40.0344274,29.606618 39.629169,29.6208174 39.2937777,29.6208174 C38.7906908,29.6208174 38.5391512,29.5072219 38.5391512,29.2800275 C38.5391512,29.1096316 38.6229977,29.0102355 38.7906933,28.9818362 C38.958389,28.9534369 39.5592893,28.9392375 40.5934124,28.9392375 C41.375992,28.9392375 41.767276,28.8114425 41.767276,28.5558488 C41.767276,28.3570536 41.6275317,28.0162671 41.348039,27.5334789 C40.6772564,26.3123087 39.6431489,24.480581 38.2456853,22.0382407 L37.9941431,21.6122532 C35.115368,25.7869512 33.6760021,28.1014599 33.6760021,28.5558488 C33.6760021,28.8114425 34.45857,28.9534369 36.0237292,28.9818362 C36.303222,28.9818362 36.4429662,29.0812323 36.4429662,29.2800275 C36.4429662,29.5356212 36.205401,29.6634162 35.7302633,29.6634162 C35.5625677,29.6634162 35.2551303,29.6492167 34.807942,29.6208174 C34.3607536,29.5924181 33.7878021,29.5782187 33.0890703,29.5782187 L32.711757,29.5782187 C32.3204672,29.5782187 31.9571321,29.5924181 31.6217409,29.6208174 L30.7832669,29.5782187 C30.4199264,29.606618 30.1963355,29.6208174 30.1124877,29.6208174 C29.8050457,29.6208174 29.651327,29.5072219 29.651327,29.2800275 C29.651327,29.052833 29.9587644,28.9250381 30.5736484,28.8966387 C31.5239237,28.8398401 32.2645683,28.4990536 32.7956044,27.8742689 L36.2752714,22.5494257 C36.4709163,22.2654326 36.8622003,21.6832556 37.449135,20.8028771 C36.9739974,19.9792972 35.7721967,17.6931874 33.8436969,13.944479 C33.2847115,12.8369061 32.8584915,12.1837319 32.5650241,11.9849367 C32.2715567,11.7861416 31.5658482,11.6725461 30.4478773,11.6441468 C30.0286382,11.6441468 29.8190218,11.5447507 29.8190218,11.3459556 C29.8190218,11.1187611 30.0146638,11.0051656 30.4059536,11.0051656 L35.1433316,11.0903631 C35.6184692,11.0903631 36.2612928,11.0761636 37.0718217,11.0477643 C37.9941477,11.019365 38.6509457,11.0051656 39.0422355,11.0051656 C39.7689166,11.0051656 40.1322517,11.1187611 40.1322517,11.3459556 C40.1322517,11.57315 39.6431468,11.700945 38.6649222,11.7293443 C37.4351543,11.7577436 36.8202795,11.9139374 36.8202795,12.1979305 C36.8202795,12.3967256 37.0857936,12.9789026 37.6168298,13.944479 C38.5112065,15.6484374 39.181979,16.9405864 39.6291673,17.8209649 L39.7968621,18.1617549 C40.6353403,16.9973833 41.4807931,15.712334 42.3332459,14.3065684 C43.1856987,12.9008027 43.6119187,12.0843349 43.6119187,11.8571405 C43.6119187,11.6867447 43.2765325,11.6157475 42.6057499,11.6441468 L41.7253523,11.6867455 C41.5297073,11.6867455 41.4318864,11.57315 41.4318864,11.3459556 C41.4318864,11.1194947 41.6123827,11.0059003 41.9733807,11.0051691 L41.9732838,11.0051702 Z M68.5814755,19.2961839 C68.5814755,22.1128851 67.7884876,24.4647953 66.2024879,26.3519851 C64.6164882,28.239175 62.6445447,29.1827557 60.2865983,29.1827557 C58.4339261,29.1827557 57.0023373,28.5067576 55.9917888,27.154741 L55.9917888,36.9990625 C55.9917888,37.6187367 56.0128416,37.9849024 56.0549478,38.0975705 C56.0970539,38.2102385 56.2303882,38.3088216 56.4549545,38.3933226 C56.8760164,38.4778236 57.6900571,38.5200735 58.8971011,38.5200735 C59.2339506,38.5200735 59.4023728,38.6468232 59.4023728,38.9003263 C59.4023728,39.0974954 59.2199154,39.1960784 58.8549951,39.1960784 L57.0865442,39.1960784 C56.6654823,39.1679114 56.3005675,39.1538281 55.9917888,39.1538281 C55.8233641,39.1538281 55.360203,39.1679114 54.6022916,39.1960784 L50.6022239,39.1960784 C49.788171,39.1960784 49.3811506,39.0974954 49.3811506,38.9003263 C49.3811506,38.6468232 49.5495728,38.5200735 49.8864223,38.5200735 L51.1496016,38.5200735 C51.9636545,38.5200735 52.3987453,38.3369907 52.4548868,37.9708195 C52.4829576,37.8018175 52.4969928,36.5061543 52.4969928,34.0837913 L52.4969928,13.0431385 C52.4969928,12.2544622 52.1180428,11.8882965 51.3601315,11.9446305 C50.2372998,11.8882965 49.6478221,11.8601299 49.5916805,11.8601299 C49.3390434,11.8601299 49.2127267,11.7615468 49.2127267,11.5643777 C49.2127267,11.3108746 49.5215008,11.184125 50.1390582,11.184125 C51.6829517,11.212292 53.0864702,10.8461263 54.3496557,10.085617 C54.714576,9.86028091 54.9952797,9.74761455 55.1917753,9.74761455 C55.4163416,9.74761455 55.563711,9.85323926 55.633888,10.0644919 C55.704065,10.2757444 55.7531881,10.9165344 55.7812589,11.9868808 C56.8198782,10.4940292 58.3076078,9.74761455 60.2444923,9.74761455 C62.6866511,9.74761455 64.686665,10.6419038 66.2445939,12.430509 C67.8025228,14.2191143 68.5814755,16.5076497 68.5814755,19.2961839 Z M64.7502944,19.2717712 C64.7502944,17.0625564 64.4110408,15.1790874 63.7325234,13.6213077 C62.8278335,11.4687394 61.4284123,10.3924714 59.5342179,10.3924714 C58.5447133,10.3924714 57.6965793,10.7394262 56.9897903,11.4333463 C56.2830013,12.1272663 55.901341,12.9698709 55.8447979,13.9611852 C55.7882547,15.207409 55.8023903,17.8272719 55.887205,21.8208525 C55.9154765,23.8318045 55.9578832,25.042606 56.0144264,25.4532934 C56.0709695,25.8639807 56.2547319,26.2817427 56.565719,26.7065917 C57.3855942,27.8678456 58.4457618,28.4484639 59.7462535,28.4484639 C61.2163746,28.4484639 62.3189488,27.8253613 63.0540094,26.5791376 C64.1848717,24.6814787 64.7502944,22.2457143 64.7502944,19.2717712 Z M87.2070922,26.6695 C87.2070922,27.1514317 86.7072131,27.6546175 85.7074399,28.1790726 C84.7076667,28.7035276 83.7431112,28.9657512 82.8137446,28.9657512 C80.8705234,28.9657512 79.8566841,27.9593796 79.7721962,25.9466061 C78.7020165,28.0444264 77.0404465,29.0933208 74.7874365,29.0933208 C73.5764436,29.0933208 72.5766854,28.7318774 71.7881318,28.0089799 C70.9995783,27.2860824 70.6053075,26.3576691 70.6053075,25.2237122 C70.6053075,22.8991006 71.9993365,21.0564483 74.7874365,19.6957 C75.7449657,19.2421173 77.4065357,18.7885413 79.7721962,18.3349586 L79.7721962,17.2718793 C79.7721962,14.7771742 79.6454663,13.1329613 79.3920027,12.3391915 C78.9414007,10.8933965 77.9275614,10.1705098 76.3504543,10.1705098 C75.3647625,10.1705098 74.541018,10.4398205 73.8791963,10.9784501 C73.2173746,11.5170796 72.8864687,12.1974435 72.8864687,13.0195623 C72.8864687,13.2463536 73.0624825,13.3597476 73.4145153,13.3597476 C73.7665481,13.3597476 74.0833729,13.5298386 74.3649992,13.8700257 C74.6466254,14.2102127 74.7874365,14.5929174 74.7874365,15.0181513 C74.7874365,16.2655038 74.167868,16.8891708 72.9287125,16.8891708 C72.2809721,16.8891708 71.7458902,16.6694699 71.3234508,16.2300616 C70.9010115,15.7906533 70.6897949,15.2307705 70.6897949,14.5503964 C70.6897949,13.2179971 71.2107957,12.0698829 72.2528128,11.1060196 C73.4074805,10.0571095 75.0127261,9.53266226 77.0685977,9.53266226 C80.1664865,9.53266226 82.0674352,10.3831172 82.7715008,12.0840525 C83.0249645,12.7360777 83.1516944,14.0259343 83.1516944,15.953661 L83.1516944,23.9054939 C83.1516944,25.2095444 83.1657755,25.9749538 83.1939381,26.2017451 C83.3347512,27.2223063 83.7431032,27.7325793 84.4190062,27.7325793 C85.2075597,27.7325793 85.8552904,27.4490943 86.3622176,26.8821159 C86.6438439,26.5702777 86.8550604,26.414361 86.9958735,26.414361 C87.1366867,26.414361 87.2070922,26.4994065 87.2070922,26.6695 Z M79.7575734,22.3273879 L79.7575734,19.2055154 C77.6291288,19.6901921 76.1037664,20.3245388 75.1814404,21.1085747 C74.2591145,21.8926105 73.7979584,22.9403518 73.7979584,24.2518299 C73.7979584,25.1641625 74.0604626,25.9125491 74.5854789,26.4970122 C75.1104953,27.0814753 75.7703032,27.3737024 76.5649225,27.3737024 C77.7852307,27.3737024 78.7643005,26.6894632 79.5021613,25.3209643 C79.6724369,25.00735 79.7575734,24.0095012 79.7575734,22.3273879 Z M99.7446599,26.0754877 C99.7446599,26.3305172 99.3923132,26.783896 98.6876094,27.4356378 C97.4755187,28.5407653 96.0379444,29.0933208 94.3748432,29.0933208 C92.8244947,29.0933208 91.6547038,28.6966143 90.8654355,27.9031894 C90.414425,27.4498038 90.1889232,26.1180035 90.1889232,23.9077485 L90.1889232,11.2413508 C90.160735,10.9579848 90.0057025,10.8021358 89.7238209,10.7737992 L88.1171041,10.7737992 C87.4969647,10.7737992 87.1868997,10.6746226 87.1868997,10.4762664 C87.1868997,10.2779102 87.3419322,10.1645655 87.6520019,10.1362289 C89.850678,9.93787265 91.5701296,8.86109793 92.8104084,6.9058724 C92.9795374,6.65084298 93.1909454,6.52333019 93.4446388,6.52333019 C93.6419558,6.52333019 93.7406129,6.62250681 93.7406129,6.82086302 L93.7406129,6.99088178 C93.7124248,7.13256479 93.6983309,7.37342229 93.6983309,7.71346152 C93.6983309,8.9035988 93.7547064,9.66867557 93.867459,10.0087148 C94.1211524,10.065388 94.5439683,10.0937242 95.1359196,10.0937242 C96.6862681,10.0937242 97.7151203,10.0228837 98.2225071,9.88120072 C98.3352597,9.85286412 98.4339168,9.83869603 98.5184813,9.83869603 C98.7439865,9.83869603 98.8567374,9.96620883 98.8567374,10.2212382 C98.8567374,10.6462873 97.7151343,10.8588086 95.4318937,10.8588086 C95.0372596,10.8588086 94.4594111,10.8446405 93.6983309,10.8163039 L93.6983309,18.6796716 C93.6983309,22.6467959 93.796988,25.1332954 93.994305,26.1392448 C94.1916221,27.1451941 94.83994,27.6481613 95.939278,27.6481613 C96.8694871,27.6481613 97.9124332,27.123942 99.0681475,26.0754877 C99.1809002,25.9338047 99.307745,25.8629643 99.4486857,25.8629643 C99.6460028,25.8629643 99.7446599,25.9338047 99.7446599,26.0754877 Z" id="Expat"></path>
                <path d="M-2.70247459,18.4440991 L-1.77043537,18.4440991 L-1.77043537,11.818572 L-2.61774375,11.818572 C-2.81262565,11.818572 -2.98208563,11.8507417 -3.12612878,11.915082 C-3.27017192,11.9794224 -3.38667566,12.067702 -3.47564348,12.1799235 C-3.56461131,12.2921451 -3.6366318,12.4335421 -3.69170712,12.6041189 C-3.74678244,12.7746956 -3.78491094,12.9534993 -3.80609375,13.1405352 C-3.82727657,13.3275711 -3.83786782,13.5422851 -3.83786782,13.7846837 L-3.88870632,13.7846837 L-3.88870632,11.7647059 L1.15277855,11.7647059 L1.15277855,13.7846837 L1.10194005,13.7846837 C1.10194005,13.5422851 1.0913488,13.3275711 1.07016599,13.1405352 C1.04898317,12.9534993 1.01085467,12.7746956 0.955779355,12.6041189 C0.900704034,12.4335421 0.828683542,12.2921451 0.739715717,12.1799235 C0.650747892,12.067702 0.534244155,11.9794224 0.39020101,11.915082 C0.246157864,11.8507417 0.0766978825,11.818572 -0.11818402,11.818572 L-0.965492402,11.818572 L-0.965492402,18.4440991 L-0.0334531816,18.4440991 L-0.0334531816,18.4979652 L-2.70247459,18.4979652 L-2.70247459,18.4440991 Z M2.32092749,18.4440991 L2.84872271,18.4440991 L2.84872271,11.818572 L2.32092749,11.818572 L2.32092749,11.7647059 L3.61487708,11.7647059 L3.61487708,15.8136392 C3.73121962,14.7901786 4.19374522,14.278456 5.00246775,14.278456 C5.2436657,14.278456 5.4458433,14.3113739 5.60900662,14.3772105 C5.77216994,14.4430471 5.89631408,14.5403044 5.98144277,14.6689851 C6.06657146,14.7976658 6.12616065,14.9383147 6.16021212,15.090936 C6.1942636,15.2435573 6.21128908,15.4246054 6.21128908,15.6340856 L6.21128908,18.4440991 L6.74759713,18.4440991 L6.74759713,18.4979652 L4.91733949,18.4979652 L4.91733949,18.4440991 L5.44513472,18.4440991 L5.44513472,15.7328401 C5.44513472,15.5233598 5.43804077,15.3445562 5.42385265,15.1964237 C5.40966454,15.0482913 5.38412631,14.9068942 5.34723722,14.7722284 C5.31034812,14.6375625 5.25359651,14.5365646 5.17698069,14.4692317 C5.10036487,14.4018988 5.00530593,14.3682328 4.89180101,14.3682328 C4.04051413,14.3682328 3.61487708,15.0774624 3.61487708,16.4959428 L3.61487708,18.4440991 L4.15118513,18.4440991 L4.15118513,18.4979652 L2.32092749,18.4979652 L2.32092749,18.4440991 Z M11.666119,17.2654227 C11.551016,17.6749234 11.3460796,18.0042995 11.0513037,18.2535609 C10.7565278,18.5028222 10.385958,18.627451 9.93958305,18.627451 C9.37249036,18.627451 8.90366335,18.4345731 8.53308793,18.0488115 C8.16251252,17.6630499 7.97722759,17.1437633 7.97722759,16.490936 C7.97722759,15.8381087 8.15900333,15.3188221 8.52256028,14.9330605 C8.88611722,14.5472989 9.35003138,14.354421 9.91431667,14.354421 C10.1585596,14.354421 10.3796382,14.3892874 10.5775591,14.4590212 C10.7754801,14.5287551 10.9404117,14.6222266 11.072359,14.7394388 C11.2043064,14.856651 11.3151966,14.9961165 11.405033,15.1578397 C11.4948695,15.3195628 11.5594385,15.4909274 11.598742,15.6719386 C11.6380454,15.8529498 11.6576968,16.0428603 11.6576968,16.2416759 L8.86997299,16.2416759 C8.86435821,16.2950891 8.86155086,16.3781749 8.86155086,16.490936 C8.86155086,16.707556 8.87137658,16.9100778 8.89102831,17.0985074 C8.91068003,17.2869371 8.94717555,17.4731385 9.00051595,17.6571171 C9.05385635,17.8410957 9.12263636,17.9983654 9.20685805,18.1289308 C9.29107973,18.2594963 9.40126812,18.3648373 9.53742651,18.444957 C9.6735849,18.5250767 9.83009452,18.565136 10.0069601,18.565136 C10.4140315,18.565136 10.7558261,18.4442164 11.0323539,18.2023735 C11.3088818,17.9605307 11.5032906,17.6482169 11.6155862,17.2654227 L11.666119,17.2654227 Z M9.91908733,14.3220496 C9.73837629,14.3220496 9.58025651,14.3711458 9.44472323,14.4693396 C9.30918995,14.5675335 9.20260027,14.7050028 9.124951,14.8817518 C9.04730172,15.0585007 8.9880068,15.2495982 8.94706446,15.4550499 C8.90612211,15.6605017 8.88000411,15.8870995 8.86870967,16.1348502 L10.7746369,16.1348502 C10.7746369,16.0049321 10.7704015,15.879548 10.7619307,15.758694 C10.7534599,15.6378401 10.739342,15.5049027 10.7195768,15.3598779 C10.6998115,15.2148531 10.6694581,15.0841817 10.6285158,14.9678598 C10.5875734,14.8515378 10.5367492,14.7427709 10.4760416,14.6415557 C10.415334,14.5403405 10.3376859,14.4617866 10.243095,14.4058916 C10.148504,14.3499966 10.0405026,14.3220496 9.91908733,14.3220496 Z" id="The" transform="translate(3.888706, 15.196078) rotate(-90.000000) translate(-3.888706, -15.196078) "></path>
                <path d="M18.0871038,43.2844073 L19.3239779,43.2844073 L19.3239779,30.1071323 L18,30.1071323 L18,30 L21.0312126,30 L25.0205671,41.0703394 L28.835714,30 L31.7624021,30 L31.7624021,30.1071323 L30.5429487,30.1071323 L30.5429487,43.2844073 L31.7624021,43.2844073 L31.7624021,43.3915396 L27.4943154,43.3915396 L27.4943154,43.2844073 L28.8879763,43.2844073 L28.8879763,30.1606985 L24.3063159,43.5700935 L24.2017913,43.5700935 L19.4459233,30.2499754 L19.4459233,43.2844073 L20.7699012,43.2844073 L20.7699012,43.3915396 L18.0871038,43.3915396 L18.0871038,43.2844073 Z M37.0623592,38.8626286 L38.14369,38.8626286 L38.14369,37.9532319 C38.14369,37.6738734 38.1349697,37.4242376 38.1175288,37.2043171 C38.1000878,36.9843965 38.0608464,36.7421903 37.9998032,36.4776913 C37.9387601,36.2131923 37.855917,35.994761 37.7512716,35.8223908 C37.6466261,35.6500206 37.4969273,35.5043998 37.3021705,35.3855238 C37.1074137,35.2666478 36.8763251,35.2072107 36.6088979,35.2072107 C36.1205525,35.2072107 35.6743627,35.2874508 35.2703151,35.4479334 C34.8662674,35.6084159 34.5741366,35.7956428 34.3939139,36.0096195 C34.7950547,35.8729122 35.1278804,35.8981729 35.3924008,36.0854026 C35.6569212,36.2726322 35.7891794,36.5207821 35.7891794,36.8298596 C35.7891794,37.1567685 35.6816288,37.4078903 35.4665243,37.5832323 C35.2514198,37.7585744 35.0159711,37.8462441 34.7601711,37.8462441 C34.4927439,37.8462441 34.2747358,37.7600603 34.1061404,37.5876901 C33.937545,37.41532 33.8532485,37.1745998 33.8532485,36.8655222 C33.8532485,36.5088943 34.0029474,36.1894199 34.3023496,35.9070895 C34.6017518,35.6247591 34.985446,35.4107855 35.4534437,35.2651625 C35.9214413,35.1195394 36.4228598,35.046729 36.9577143,35.046729 C37.4635006,35.046729 37.8937031,35.1046801 38.2483349,35.2205842 C38.6029667,35.3364883 38.8732966,35.4776514 39.059333,35.6440777 C39.2453693,35.8105041 39.3892546,36.0348791 39.4909933,36.3172096 C39.5927319,36.59954 39.6552275,36.8551195 39.6784821,37.0839557 C39.7017366,37.312792 39.7133637,37.6025478 39.7133637,37.9532319 L39.7133637,42.5893716 C39.7133637,43.0411003 39.9226514,43.2669612 40.3412332,43.2669612 C40.5214559,43.2669612 40.7292902,43.1763197 40.9647425,42.9950338 C41.2001947,42.813748 41.3934952,42.5596544 41.5446497,42.2327455 L41.6318538,42.2684081 C41.4400038,42.6963616 41.1769408,43.0202937 40.8426567,43.2402143 C40.5083727,43.4601348 40.1435725,43.5700935 39.7482453,43.5700935 C38.6785364,43.5700935 38.14369,43.0767656 38.14369,42.090095 L38.14369,41.3590115 C38.01579,42.0960425 37.7498202,42.6488074 37.3457725,43.017323 C36.9417249,43.3858385 36.3589166,43.5700935 35.5973304,43.5700935 C34.9055078,43.5700935 34.3401402,43.3680073 33.9012108,42.963829 C33.4622813,42.5596507 33.2428198,42.0306606 33.2428198,41.3768428 C33.2428198,40.5982052 33.562565,39.9845172 34.2020649,39.5357604 C34.8415648,39.0870036 35.7949867,38.8626286 37.0623592,38.8626286 Z M36.2370436,43.2336449 C36.795764,43.2336449 37.2497175,42.9783444 37.5989177,42.4677357 C37.9481179,41.957127 38.1227154,41.1733097 38.1227154,40.1162601 L38.1227154,38.9158879 L37.0402001,38.9158879 C36.3999997,38.9158879 35.8994869,39.1368497 35.5386467,39.57878 C35.1778064,40.0207103 34.997389,40.570129 34.997389,41.2270524 C34.997389,41.8302275 35.1050575,42.3154478 35.3203976,42.6827277 C35.5357378,43.0500077 35.8412834,43.2336449 36.2370436,43.2336449 Z M42.6296813,42.0477788 C42.6296813,41.554728 42.8481108,41.1700948 43.2849765,40.8938676 C43.7218421,40.6176404 44.2664598,40.4438872 44.9188458,40.3726027 C44.2315105,40.2537953 43.6577689,39.9775723 43.1976038,39.5439252 C42.7374387,39.1102782 42.5073595,38.51328 42.5073595,37.7529126 C42.5073595,37.2836233 42.6020123,36.8663186 42.7913208,36.5009858 C42.9806292,36.135653 43.2310951,35.8460643 43.5427259,35.632211 C43.8543567,35.4183577 44.1878258,35.2579701 44.5431432,35.1510434 C44.8984606,35.0441167 45.2625098,34.9906542 45.6353019,34.9906542 C46.1071167,34.9906542 46.5687312,35.0782734 47.020159,35.2535143 C47.4715868,35.4287552 47.8487418,35.6856724 48.1516353,36.0242735 C48.3788055,35.6975531 48.6467457,35.4584568 48.9554641,35.3069773 C49.2641825,35.1554979 49.5612467,35.0797593 49.8466655,35.0797593 C50.2777063,35.0797593 50.615544,35.2015351 50.8601887,35.4450903 C51.1048335,35.6886454 51.227154,35.9886296 51.227154,36.3450518 C51.227154,36.7133548 51.1412384,36.9836376 50.9694046,37.1559083 C50.7975708,37.3281791 50.5864222,37.4143131 50.3359526,37.4143131 C50.1029576,37.4143131 49.89909,37.3356044 49.7243438,37.1781846 C49.5495975,37.0207648 49.4622257,36.8024595 49.4622257,36.5232621 C49.4622257,36.2797069 49.5481413,36.0792224 49.7199751,35.9218026 C49.891809,35.7643828 50.1029575,35.685674 50.3534271,35.685674 C50.5223485,35.685674 50.6781616,35.727256 50.820871,35.8104212 C50.9635805,35.8935864 51.0524085,36.0005114 51.0873577,36.1311996 C51.0524085,35.8579426 50.9286318,35.6322119 50.7160238,35.4540008 C50.5034159,35.2757897 50.2136327,35.1866854 49.8466655,35.1866854 C49.5670715,35.1866854 49.2816569,35.262424 48.9904132,35.4139035 C48.6991694,35.5653829 48.4428788,35.7985389 48.2215335,36.1133786 C48.5826758,36.5589063 48.7632442,37.1054122 48.7632442,37.7529126 C48.7632442,38.2222018 48.6685914,38.6350513 48.4792829,38.9914736 C48.2899745,39.3478958 48.0380524,39.627089 47.7235092,39.8290616 C47.4089659,40.0310342 47.0754968,40.1810263 46.7230919,40.2790424 C46.3706869,40.3770585 46.0080939,40.4260658 45.6353019,40.4260658 C45.4722054,40.4260658 45.34406,40.4201255 45.250862,40.4082448 C44.8547705,40.4676485 44.5169328,40.5864541 44.2373388,40.7646652 C43.9577448,40.9428763 43.8179499,41.1804876 43.8179499,41.4775061 C43.8179499,41.5844327 43.8354243,41.6765071 43.8703735,41.7537319 C43.9053228,41.8309567 43.966483,41.8933297 44.0538562,41.9408526 C44.1412293,41.9883756 44.2227763,42.0255024 44.2984997,42.052234 C44.3742231,42.0789657 44.492175,42.0982716 44.6523591,42.1101523 C44.8125432,42.1220331 44.9436009,42.1294584 45.0455362,42.1324286 C45.1474715,42.1353988 45.3032846,42.1368839 45.5129801,42.1368839 C45.7285005,42.1368839 45.9512986,42.1339137 46.1813812,42.1279734 C46.4114637,42.122033 46.6022255,42.1190629 46.7536723,42.1190629 C47.0565658,42.1190629 47.3215936,42.1339136 47.5487638,42.1636154 C47.7759339,42.1933173 48.0191188,42.2631156 48.2783257,42.3730124 C48.5375327,42.4829093 48.7501374,42.6329014 48.9161464,42.8229932 C49.0821553,43.0130851 49.220494,43.2774276 49.3311667,43.6160287 C49.4418393,43.9546298 49.4971748,44.3585689 49.4971748,44.8278581 C49.4971748,45.5169411 49.3224311,46.106514 48.9729386,46.5965945 C48.6234461,47.0866751 48.1778499,47.443092 47.6361365,47.6658558 C47.0944231,47.8886197 46.4915575,48 45.8275218,48 C45.1401865,48 44.5213028,47.9198062 43.9708521,47.7594162 C43.4204014,47.5990262 42.966068,47.3331986 42.6078381,46.9619255 C42.2496083,46.5906523 42.0704961,46.1347358 42.0704961,45.5941621 C42.0704961,45.2436802 42.1491307,44.9288453 42.3064023,44.6496479 C42.463674,44.3704505 42.6660854,44.1521452 42.9136425,43.9947254 C43.1611997,43.8373056 43.4087532,43.7155298 43.6563104,43.6293944 C43.9038676,43.5432591 44.1441401,43.4912816 44.3771351,43.4734605 C43.2121601,43.336832 42.6296813,42.8616095 42.6296813,42.0477788 Z M44.2088773,37.7547766 C44.2088773,38.0158222 44.2132017,38.2338513 44.2218505,38.4088705 C44.2304994,38.5838897 44.2492383,38.779671 44.2780679,38.9962202 C44.3068974,39.2127694 44.3544655,39.3922356 44.4207735,39.5346241 C44.4870815,39.6770126 44.5721274,39.811983 44.6759138,39.9395394 C44.7797003,40.0670958 44.9151972,40.16202 45.0824086,40.224315 C45.2496201,40.28661 45.4427752,40.317757 45.6618799,40.317757 C46.1404506,40.317757 46.5022562,40.070064 46.7473074,39.5746707 C46.9923587,39.0792773 47.1148825,38.472652 47.1148825,37.7547766 C47.1148825,37.2920139 47.0673144,36.8663379 46.9721769,36.477736 C46.8770393,36.089134 46.7155962,35.7628319 46.4878427,35.4988198 C46.2600892,35.2348078 45.984771,35.1028037 45.6618799,35.1028037 C45.3389888,35.1028037 45.0636706,35.2348078 44.8359171,35.4988198 C44.6081636,35.7628319 44.4467204,36.089134 44.3515829,36.477736 C44.2564453,36.8663379 44.2088773,37.2920139 44.2088773,37.7547766 Z M43.770235,45.2031001 C43.770235,45.5231381 43.8108301,45.8342816 43.8920215,46.1365398 C43.9732129,46.438798 44.0993477,46.7247536 44.2704296,46.9944153 C44.4415114,47.264077 44.6778329,47.4803958 44.979401,47.6433782 C45.2809691,47.8063605 45.6318267,47.8878505 46.0319843,47.8878505 C46.9366886,47.8878505 47.6905975,47.6493071 48.2937337,47.1722134 C48.8968699,46.6951196 49.1984334,46.0565347 49.1984334,45.2564395 C49.1984334,44.6815563 48.9751604,44.2533636 48.5286077,43.9718486 C48.0820549,43.6903337 47.5398204,43.5495783 46.9018879,43.5495783 L45.2664692,43.5495783 C44.9649011,43.5495783 44.7445277,43.5377252 44.6053424,43.5140187 C44.268978,43.7155241 44.045705,43.9585124 43.9355167,44.2429907 C43.8253283,44.5274689 43.770235,44.8475022 43.770235,45.2031001 Z M62.2842913,38.8626286 L63.3656221,38.8626286 L63.3656221,37.9532319 C63.3656221,37.6738734 63.3569018,37.4242376 63.3394609,37.2043171 C63.32202,36.9843965 63.2827785,36.7421903 63.2217353,36.4776913 C63.1606922,36.2131923 63.0778491,35.994761 62.9732037,35.8223908 C62.8685582,35.6500206 62.7188594,35.5043998 62.5241026,35.3855238 C62.3293458,35.2666478 62.0982573,35.2072107 61.83083,35.2072107 C61.3424847,35.2072107 60.8962948,35.2874508 60.4922472,35.4479334 C60.0881995,35.6084159 59.7960687,35.7956428 59.615846,36.0096195 C60.0169869,35.8729122 60.3498125,35.8981729 60.6143329,36.0854026 C60.8788533,36.2726322 61.0111115,36.5207821 61.0111115,36.8298596 C61.0111115,37.1567685 60.9035609,37.4078903 60.6884564,37.5832323 C60.4733519,37.7585744 60.2379032,37.8462441 59.9821032,37.8462441 C59.714676,37.8462441 59.4966679,37.7600603 59.3280725,37.5876901 C59.1594771,37.41532 59.0751806,37.1745998 59.0751806,36.8655222 C59.0751806,36.5088943 59.2248795,36.1894199 59.5242817,35.9070895 C59.8236839,35.6247591 60.2073781,35.4107855 60.6753758,35.2651625 C61.1433734,35.1195394 61.6447919,35.046729 62.1796464,35.046729 C62.6854327,35.046729 63.1156353,35.1046801 63.470267,35.2205842 C63.8248988,35.3364883 64.0952288,35.4776514 64.2812651,35.6440777 C64.4673014,35.8105041 64.6111867,36.0348791 64.7129254,36.3172096 C64.814664,36.59954 64.8771596,36.8551195 64.9004142,37.0839557 C64.9236687,37.312792 64.9352958,37.6025478 64.9352958,37.9532319 L64.9352958,42.5893716 C64.9352958,43.0411003 65.1445835,43.2669612 65.5631653,43.2669612 C65.743388,43.2669612 65.9512223,43.1763197 66.1866746,42.9950338 C66.4221268,42.813748 66.6154273,42.5596544 66.7665818,42.2327455 L66.8537859,42.2684081 C66.6619359,42.6963616 66.3988729,43.0202937 66.0645888,43.2402143 C65.7303048,43.4601348 65.3655047,43.5700935 64.9701774,43.5700935 C63.9004685,43.5700935 63.3656221,43.0767656 63.3656221,42.090095 L63.3656221,41.3590115 C63.2377221,42.0960425 62.9717523,42.6488074 62.5677046,43.017323 C62.163657,43.3858385 61.5808488,43.5700935 60.8192625,43.5700935 C60.1274399,43.5700935 59.5620723,43.3680073 59.1231429,42.963829 C58.6842134,42.5596507 58.464752,42.0306606 58.464752,41.3768428 C58.464752,40.5982052 58.7844971,39.9845172 59.423997,39.5357604 C60.0634969,39.0870036 61.0169188,38.8626286 62.2842913,38.8626286 Z M61.4589757,43.2336449 C62.0176961,43.2336449 62.4716496,42.9783444 62.8208498,42.4677357 C63.17005,41.957127 63.3446475,41.1733097 63.3446475,40.1162601 L63.3446475,38.9158879 L62.2621322,38.9158879 C61.6219318,38.9158879 61.121419,39.1368497 60.7605788,39.57878 C60.3997386,40.0207103 60.2193211,40.570129 60.2193211,41.2270524 C60.2193211,41.8302275 60.3269896,42.3154478 60.5423297,42.6827277 C60.7576699,43.0500077 61.0632155,43.2336449 61.4589757,43.2336449 Z M71.5724398,35.2656644 C71.0892539,35.2656644 70.6817539,35.3324049 70.3499275,35.4658879 C70.018101,35.5993708 69.7619582,35.8025586 69.5814912,36.0754571 C69.4010241,36.3483557 69.2744081,36.655362 69.2016391,36.9964852 C69.1288702,37.3376084 69.0924862,37.7454669 69.0924862,38.2200731 L68.9876994,38.2200731 L68.9876994,35.1588785 L75.2923702,35.1588785 L75.2923702,35.2656644 L70.3848564,43.2390085 L72.5853786,43.2390085 C73.1791733,43.2390085 73.6652626,43.1796836 74.0436612,43.0610321 C74.4220597,42.9423806 74.7160419,42.7466084 74.9256165,42.4737099 C75.1351911,42.2008113 75.2778161,41.8789738 75.3534958,41.5081877 C75.4291755,41.1374016 75.4670148,40.6583532 75.4670148,40.071028 L75.5718016,40.071028 L75.5718016,43.3457944 L68.4986945,43.3457944 L68.4986945,43.2390085 L73.3887438,35.2656644 L71.5724398,35.2656644 Z M79.3395628,33.5428476 C79.1369943,33.3356815 79.0357116,33.0841263 79.0357116,32.7881747 C79.0357116,32.4922231 79.1369943,32.240668 79.3395628,32.0335018 C79.5421312,31.8263357 79.7881035,31.7227541 80.077487,31.7227541 C80.3668706,31.7227541 80.6128429,31.8263357 80.8154113,32.0335018 C81.0179798,32.240668 81.1192625,32.4922231 81.1192625,32.7881747 C81.1192625,33.0841263 81.0179798,33.3356815 80.8154113,33.5428476 C80.6128429,33.7500138 80.3668706,33.8535953 80.077487,33.8535953 C79.7881035,33.8535953 79.5421312,33.7500138 79.3395628,33.5428476 Z M78.0939948,43.2390085 L79.1691785,43.2390085 L79.1691785,35.2656644 L78.0939948,35.2656644 L78.0939948,35.1588785 L80.729929,35.1588785 L80.729929,43.2390085 L81.8224543,43.2390085 L81.8224543,43.3457944 L78.0939948,43.3457944 L78.0939948,43.2390085 Z M83.8511749,43.239133 L84.9298554,43.239133 L84.9298554,35.2750845 L83.8511749,35.2750845 L83.8511749,35.1684231 L86.4956819,35.1684231 L86.4956819,38.0660569 C86.7334567,36.0157782 87.6787425,34.9906542 89.3315676,34.9906542 C89.818716,34.9906542 90.2275666,35.0558355 90.5581317,35.1862 C90.8886967,35.3165646 91.142416,35.5076643 91.3192973,35.7595049 C91.4961786,36.0113455 91.6208635,36.2898474 91.6933558,36.5950189 C91.7658482,36.9001904 91.8020938,37.2601689 91.8020938,37.6749652 L91.8020938,43.239133 L92.8981723,43.239133 L92.8981723,43.3457944 L89.1575869,43.3457944 L89.1575869,43.239133 L90.2362673,43.239133 L90.2362673,37.870511 C90.2362673,37.4557148 90.2217691,37.1016618 90.1927721,36.8083416 C90.1637752,36.5150214 90.1115815,36.2350381 90.0361895,35.9683834 C89.9607975,35.7017286 89.8448115,35.5017406 89.6882281,35.3684132 C89.5316446,35.2350858 89.3373681,35.1684231 89.1053926,35.1684231 C88.6704387,35.1684231 88.2891347,35.2647137 87.9614694,35.4572977 C87.6338041,35.6498817 87.3800848,35.8883859 87.2003038,36.1728177 C87.0205228,36.4572494 86.8740905,36.7994512 86.7610025,37.1994333 C86.6479144,37.5994154 86.5754232,37.9682823 86.5435266,38.3060449 C86.5116299,38.6438076 86.4956819,39.0023047 86.4956819,39.381547 L86.4956819,43.239133 L87.5917604,43.239133 L87.5917604,43.3457944 L83.8511749,43.3457944 L83.8511749,43.239133 Z M102,40.8353972 C101.762192,41.6575976 101.338785,42.3189227 100.729765,42.8193925 C100.120745,43.3198623 99.3551318,43.5700935 98.4329017,43.5700935 C97.2612636,43.5700935 96.2926466,43.182831 95.5270217,42.4082944 C94.7613968,41.6337578 94.3785901,40.591128 94.3785901,39.2803738 C94.3785901,37.9696196 94.7541467,36.9269899 95.5052711,36.1524533 C96.2563956,35.3779167 97.2148624,34.9906542 98.3807003,34.9906542 C98.8853167,34.9906542 99.3420747,35.0606593 99.7509881,35.2006717 C100.159901,35.3406841 100.500657,35.5283575 100.773266,35.7636974 C101.045875,35.9990374 101.274979,36.279058 101.460585,36.6037675 C101.646191,36.9284771 101.779594,37.2725449 101.860796,37.6359813 C101.941999,37.9994177 101.9826,38.3807223 101.9826,38.7799065 L96.2230409,38.7799065 C96.2114405,38.8871501 96.2056404,39.0539708 96.2056404,39.2803738 C96.2056404,39.7153059 96.2259408,40.1219315 96.2665421,40.5002629 C96.3071434,40.8785942 96.3825447,41.2524514 96.4927483,41.6218458 C96.6029519,41.9912402 96.7450544,42.307008 96.9190601,42.5691589 C97.0930657,42.8313097 97.3207197,43.0428146 97.6020289,43.2036799 C97.883338,43.3645452 98.2066937,43.4449766 98.5721056,43.4449766 C99.413133,43.4449766 100.119295,43.2021928 100.690614,42.716618 C101.261933,42.2310431 101.66359,41.6039758 101.895597,40.8353972 L102,40.8353972 Z M98.3636554,35.1028037 C97.9893454,35.1028037 97.6618291,35.199999 97.3810966,35.3943925 C97.1003641,35.588786 96.879583,35.8609328 96.7187467,36.2108411 C96.5579104,36.5607494 96.4350918,36.9390634 96.3502872,37.3457944 C96.2654826,37.7525254 96.2113839,38.201119 96.1879896,38.6915888 L100.13577,38.6915888 C100.13577,38.4343912 100.126997,38.1861694 100.109452,37.9469159 C100.091906,37.7076624 100.062663,37.4444874 100.021723,37.1573832 C99.9807831,36.8702789 99.9179117,36.6115899 99.833107,36.3813084 C99.7483024,36.1510269 99.6430293,35.9357019 99.5172846,35.7353271 C99.3915398,35.5349523 99.2307059,35.3794398 99.0347781,35.268785 C98.8388502,35.1581303 98.6151449,35.1028037 98.3636554,35.1028037 Z" id="Magazine"></path>
            </g>
        </g>
    </g>
</svg>